<svg width="16" height="24" viewBox="0 0 16 24" fill="none" xmlns="http://www.w3.org/2000/svg">
<path d="M13.9572 23.9237H1.99531C1.14794 23.9237 0.5 23.2758 0.5 22.4284V1.49531C0.5 0.647941 1.14794 0 1.99531 0H13.9572C14.8046 0 15.4525 0.647941 15.4525 1.49531V22.4289C15.4525 23.2761 14.8046 23.924 13.9572 23.924V23.9237ZM1.99531 0.996811C1.69629 0.996811 1.49686 1.19622 1.49686 1.49526V22.4288C1.49686 22.7279 1.69627 22.9273 1.99531 22.9273H13.9572C14.2562 22.9273 14.4557 22.7279 14.4557 22.4288V1.49526C14.4557 1.19624 14.2563 0.996811 13.9572 0.996811H1.99531Z" fill="#5A5A61"/>
<path d="M14.9542 5.48225H0.998451C0.699431 5.48225 0.5 5.28285 0.5 4.9838C0.5 4.68478 0.699408 4.48535 0.998451 4.48535H14.9542C15.2532 4.48535 15.4526 4.68476 15.4526 4.9838C15.4526 5.28282 15.2532 5.48225 14.9542 5.48225Z" fill="#5A5A61"/>
<path d="M14.9542 19.4383H0.998451C0.699431 19.4383 0.5 19.2389 0.5 18.9399C0.5 18.6408 0.699408 18.4414 0.998451 18.4414H14.9542C15.2532 18.4414 15.4526 18.6408 15.4526 18.9399C15.4526 19.2389 15.2532 19.4383 14.9542 19.4383Z" fill="#5A5A61"/>
<path d="M8.47486 2.99007H5.48429C5.18527 2.99007 4.98584 2.79066 4.98584 2.49162C4.98584 2.1926 5.18525 1.99316 5.48429 1.99316H8.47486C8.77388 1.99316 8.97331 2.19257 8.97331 2.49162C8.97331 2.79082 8.7739 2.99007 8.47486 2.99007Z" fill="#5A5A61"/>
<path d="M10.4686 2.99007H9.97013C9.67111 2.99007 9.47168 2.79066 9.47168 2.49162C9.47168 2.1926 9.67109 1.99316 9.97013 1.99316H10.4686C10.7676 1.99316 10.967 2.19257 10.967 2.49162C10.967 2.79082 10.7676 2.99007 10.4686 2.99007Z" fill="#5A5A61"/>
<path d="M7.97627 22.6776C7.1289 22.6776 6.48096 22.0297 6.48096 21.1823C6.48096 20.335 7.1289 19.687 7.97627 19.687C8.82363 19.687 9.47157 20.335 9.47157 21.1823C9.47157 22.0297 8.82363 22.6776 7.97627 22.6776ZM7.97627 20.6839C7.67725 20.6839 7.47781 20.8833 7.47781 21.1824C7.47781 21.4814 7.67722 21.6808 7.97627 21.6808C8.27531 21.6808 8.47472 21.4814 8.47472 21.1824C8.47472 20.8833 8.27531 20.6839 7.97627 20.6839Z" fill="#5A5A61"/>
</svg>
